<svg width="50" height="51" viewBox="0 0 50 51" fill="none" xmlns="http://www.w3.org/2000/svg">
<path d="M11.2488 49.7267C11.6273 50.1083 12.2436 50.1125 12.6271 49.7348L17.3618 45.0702C18.1662 44.2658 18.4108 43.0749 18.0571 42.0396L19.0755 41.0574C19.6239 40.5278 20.3458 40.2359 21.109 40.2359H34.0918C36.3951 40.2359 38.572 39.3513 40.2224 37.7452C40.2903 37.6792 39.7069 38.3665 49.0795 27.1645C50.4696 25.5199 50.2616 23.0503 48.6155 21.6586C46.9796 20.2799 44.529 20.478 43.1351 22.0944L37.3723 28.0174C36.6446 27.1218 35.535 26.5635 34.336 26.5635H23.4459C21.8962 25.9152 20.252 25.5871 18.5554 25.5871C13.8527 25.5871 9.74645 27.7591 7.54277 31.8314C6.61437 31.6555 5.63521 31.9363 4.9308 32.6407L0.284952 37.3003C-0.0943472 37.6808 -0.0951104 38.2963 0.283426 38.6778L11.2488 49.7267ZM18.555 27.54C20.0509 27.54 21.4971 27.8411 22.8544 28.4349C22.978 28.489 23.1112 28.5169 23.2459 28.5169H34.336C35.3949 28.5169 36.2894 29.3804 36.2894 30.4699C36.2894 31.5471 35.4133 32.4232 34.336 32.4232H26.3681C25.8289 32.4232 25.3916 32.8605 25.3916 33.3997C25.3916 33.9393 25.8289 34.3762 26.3681 34.3762H34.336C36.4901 34.3762 38.2424 32.6239 38.2424 30.4699C38.2424 30.2982 38.2301 30.128 38.208 29.9593C43.7826 24.229 44.5687 23.4238 44.6023 23.3838C45.2983 22.5622 46.5339 22.458 47.3558 23.151C48.1785 23.8466 48.2827 25.0815 47.5848 25.9076L38.8254 36.3792C37.5463 37.6071 35.867 38.2829 34.0918 38.2829H21.109C19.8368 38.2829 18.6325 38.7694 17.719 39.652L16.889 40.453L9.23817 32.8025C11.0263 29.448 14.3816 27.54 18.555 27.54ZM6.31291 34.0209C6.63497 33.6989 7.12951 33.6409 7.52217 33.8836C7.69121 33.9866 7.20583 33.5447 15.9808 42.3075C16.3712 42.6979 16.3502 43.3199 15.9862 43.6839L11.9497 47.6604L2.35393 37.9914L6.31291 34.0209Z" fill="black"/>
<path d="M18.3601 10.7425C18.3601 16.6659 23.1791 21.4854 29.1025 21.4854C35.0259 21.4854 39.845 16.6659 39.845 10.7425C39.845 4.81909 35.0259 0 29.1025 0C23.1791 0 18.3601 4.81909 18.3601 10.7425ZM37.8921 10.7425C37.8921 15.589 33.9491 19.532 29.1025 19.532C24.256 19.532 20.313 15.589 20.313 10.7425C20.313 5.89631 24.256 1.95335 29.1025 1.95335C33.9491 1.95335 37.8921 5.89631 37.8921 10.7425Z" fill="black"/>
<path d="M27.9307 4.88319V6.02758C26.7939 6.43053 25.9773 7.51615 25.9773 8.78952C25.9773 10.4048 27.2915 11.7194 28.9072 11.7194C29.4456 11.7194 29.8836 12.1574 29.8836 12.6958C29.8836 13.2343 29.4456 13.6723 28.9072 13.6723C28.4901 13.6723 28.0394 13.4102 27.6391 12.9336C27.2919 12.5207 26.676 12.4677 26.2631 12.8145C25.8502 13.1618 25.7968 13.7776 26.1441 14.1905C26.6661 14.8114 27.2801 15.2441 27.9307 15.4624V16.6022C27.9307 17.1417 28.368 17.5787 28.9072 17.5787C29.4463 17.5787 29.8836 17.1417 29.8836 16.6022V15.4578C31.0204 15.0544 31.837 13.9688 31.837 12.6958C31.837 11.0802 30.5228 9.766 28.9072 9.766C28.3687 9.766 27.9307 9.32794 27.9307 8.78952C27.9307 8.25109 28.3687 7.81265 28.9072 7.81265C29.2533 7.81265 29.6184 7.98933 29.9634 8.32322C30.3511 8.69832 30.9693 8.68801 31.3444 8.3007C31.7195 7.91301 31.7092 7.29483 31.3218 6.91973C30.8262 6.44007 30.3301 6.16877 29.8836 6.02071V4.88319C29.8836 4.34363 29.4463 3.90632 28.9072 3.90632C28.368 3.90632 27.9307 4.34363 27.9307 4.88319Z" fill="black"/>
</svg>
