<svg width="40" height="40" viewBox="0 0 40 40" fill="none" xmlns="http://www.w3.org/2000/svg">
<path d="M15.4167 7.62939e-06H2.91667C1.30834 7.62939e-06 7.62939e-06 1.30834 7.62939e-06 2.91667V10.4167C7.62939e-06 12.025 1.30834 13.3333 2.91667 13.3333H15.4167C17.025 13.3333 18.3333 12.025 18.3333 10.4167V2.91667C18.3333 1.30834 17.025 7.62939e-06 15.4167 7.62939e-06Z" fill="white"/>
<path d="M15.4167 16.6666H2.91667C1.30833 16.6666 0 17.975 0 19.5833V37.0833C0 38.6916 1.30833 40 2.91667 40H15.4167C17.025 40 18.3333 38.6916 18.3333 37.0833V19.5833C18.3333 17.975 17.025 16.6666 15.4167 16.6666Z" fill="white"/>
<path d="M37.0833 26.6666H24.5833C22.975 26.6666 21.6666 27.975 21.6666 29.5833V37.0833C21.6666 38.6916 22.975 40 24.5833 40H37.0833C38.6916 40 40 38.6916 40 37.0833V29.5833C40 27.975 38.6916 26.6666 37.0833 26.6666Z" fill="white"/>
<path d="M37.0833 0H24.5833C22.975 0 21.6666 1.30833 21.6666 2.91667V20.4167C21.6666 22.025 22.975 23.3333 24.5833 23.3333H37.0833C38.6916 23.3333 40 22.025 40 20.4167V2.91667C40 1.30833 38.6916 0 37.0833 0Z" fill="white"/>
</svg>
