<svg width="20" height="21" viewBox="0 0 20 21" fill="none" xmlns="http://www.w3.org/2000/svg">
<path d="M8.90944 6.85132C8.75443 6.7855 8.57443 6.82214 8.45524 6.94132L7.08352 8.31305L5.7118 6.9405C5.59261 6.82218 5.41261 6.7855 5.2576 6.8505C5.10178 6.91468 5.0001 7.06719 5.0001 7.23551V20.5692C5.0001 20.7993 5.18678 20.9859 5.41679 20.9859H8.75021C8.98022 20.9859 9.1669 20.7993 9.1669 20.5692V7.23551C9.16694 7.06719 9.0653 6.91468 8.90944 6.85132ZM8.3336 20.1526H5.83352V8.24136L6.78937 9.19721C6.95187 9.35972 7.21606 9.35972 7.37857 9.19721L8.3336 8.24136V20.1526Z" fill="black"/>
<path d="M2.37761 3.60697C2.21511 3.44447 1.95092 3.44447 1.78842 3.60697L0.121683 5.2737C0.0441811 5.35203 0 5.45789 0 5.56871V20.5692C0 20.7992 0.186686 20.9859 0.416693 20.9859H3.75012C3.98012 20.9859 4.16681 20.7992 4.16681 20.5692V5.56871C4.16681 5.45789 4.12263 5.35203 4.04431 5.2737L2.37761 3.60697ZM3.33346 20.1525H0.833385V5.74118L2.08342 4.49114L3.33346 5.74118V20.1525Z" fill="black"/>
<path d="M18.9097 8.51713C18.7547 8.45213 18.5755 8.48795 18.4555 8.60713L17.4996 9.56298L14.0445 6.10787C13.882 5.94537 13.6178 5.94537 13.4553 6.10787L12.0836 7.4796L9.04434 4.44118C8.88183 4.27868 8.61764 4.27868 8.45514 4.44118L7.08342 5.8129L2.37835 1.10772C2.21584 0.945214 1.95165 0.945214 1.78915 1.10772L0.122457 2.77445C-0.0400483 2.93696 -0.0400483 3.20114 0.122457 3.36365C0.284962 3.52615 0.54915 3.52615 0.711655 3.36365L2.08338 1.99111L6.78934 6.69707C6.95185 6.85958 7.21604 6.85958 7.37854 6.69707L8.75027 5.32453L11.7895 8.36295C11.952 8.52545 12.2162 8.52545 12.3787 8.36295L13.7505 6.99122L16.9106 10.1521L15.9555 11.1072C15.8372 11.2264 15.8013 11.4055 15.8655 11.5614C15.9297 11.7172 16.0822 11.8189 16.2505 11.8189H18.7506C18.9806 11.8189 19.1673 11.6322 19.1673 11.4022V8.9021C19.1672 8.73378 19.0655 8.58127 18.9097 8.51713ZM18.3338 10.9855H17.2563L18.3338 9.90799V10.9855Z" fill="black"/>
<path d="M18.7507 12.6524H15.4172C15.1872 12.6524 15.0005 12.8391 15.0005 13.0691V20.5693C15.0005 20.7993 15.1872 20.986 15.4172 20.986H18.7507C18.9807 20.986 19.1673 20.7993 19.1673 20.5693V13.0691C19.1673 12.839 18.9807 12.6524 18.7507 12.6524ZM18.334 20.1526H15.8339V13.4857H18.334V20.1526Z" fill="black"/>
<path d="M13.9096 8.51788C13.7546 8.45287 13.5754 8.4887 13.4554 8.60788L12.0837 9.9796L10.712 8.60706C10.5928 8.48874 10.4128 8.45288 10.2578 8.51706C10.1019 8.58124 10.0003 8.73374 10.0003 8.90207V20.5691C10.0003 20.7991 10.1869 20.9858 10.417 20.9858H13.7504C13.9804 20.9858 14.1671 20.7991 14.1671 20.5691V8.90207C14.1671 8.7337 14.0655 8.5812 13.9096 8.51788ZM13.3338 20.1524H10.8337V9.90792L11.7895 10.8629C11.952 11.0254 12.2162 11.0254 12.3787 10.8629L13.3338 9.90792V20.1524Z" fill="black"/>
</svg>
