<svg width="24" height="16" viewBox="0 0 24 16" fill="none" xmlns="http://www.w3.org/2000/svg">
<path d="M18.9505 11.2708C18.4795 10.2888 16.7944 8.92572 15.1664 7.60868C14.2584 6.87465 13.4004 6.18064 12.8534 5.63364C12.7164 5.49564 12.5114 5.45162 12.3304 5.51664C11.9934 5.63866 11.7853 5.73265 11.6214 5.80563C11.3714 5.91762 11.2874 5.95564 10.9503 5.98962C10.8013 6.00462 10.6673 6.08464 10.5843 6.20863C9.87729 7.26564 9.14527 7.17564 8.65626 7.01166C8.50026 6.95968 8.47227 6.89265 8.45727 6.82866C8.35227 6.38966 8.8793 5.36762 9.56229 4.68459C11.1873 3.05854 12.0254 2.65152 13.7954 3.44255C15.8034 4.34056 17.8155 5.04361 17.8355 5.0506C18.0985 5.14158 18.3815 5.00358 18.4725 4.74257C18.5625 4.48157 18.4255 4.19656 18.1645 4.10557C18.1445 4.09859 16.1724 3.40955 14.2044 2.52851C11.9113 1.50347 10.6533 2.17849 8.85623 3.97657C8.17222 4.66059 7.24318 6.04461 7.48318 7.05967C7.58617 7.49168 7.89021 7.8117 8.34219 7.96067C9.47524 8.3347 10.5092 7.97666 11.2793 6.95466C11.5973 6.90568 11.7703 6.83367 12.0303 6.71667C12.1243 6.67467 12.2343 6.62569 12.3803 6.56667C12.9523 7.10368 13.7243 7.72868 14.5374 8.3857C16.0074 9.57472 17.6745 10.9228 18.0495 11.7028C18.2345 12.0878 18.0354 12.3388 17.9004 12.4538C17.7024 12.6238 17.4314 12.6778 17.2844 12.5748C17.1224 12.4638 16.9114 12.4568 16.7444 12.5568C16.5764 12.6568 16.4824 12.8458 16.5034 13.0398C16.5374 13.3578 16.2464 13.5398 16.1204 13.6028C15.8004 13.7648 15.4664 13.7369 15.3414 13.6208C15.2014 13.4909 15.0004 13.4528 14.8224 13.5188C14.6444 13.5858 14.5203 13.7498 14.5023 13.9398C14.4723 14.2678 14.2293 14.5828 13.9123 14.7058C13.7593 14.7638 13.5373 14.7988 13.3383 14.6168C13.2143 14.5048 13.0423 14.4618 12.8813 14.5008C12.7183 14.5408 12.5873 14.6588 12.5303 14.8158C12.5113 14.8658 12.4683 14.9858 12.0003 14.9858C11.6673 14.9858 11.0682 14.7608 10.7753 14.5668C10.4242 14.3358 8.22317 12.6938 6.32215 11.1017C6.05515 10.8767 5.59313 10.3947 5.18512 9.96866C4.8231 9.59065 4.4921 9.24766 4.32208 9.10366C4.10908 8.92365 3.79407 8.95065 3.61706 9.16267C3.43908 9.37366 3.46504 9.6897 3.67608 9.86769C3.8311 9.99871 4.13111 10.3157 4.4621 10.6607C4.90813 11.1267 5.36911 11.6087 5.67915 11.8687C7.54122 13.4278 9.77927 15.1108 10.2253 15.4038C10.5933 15.6458 11.3863 15.9858 12.0003 15.9858C12.4933 15.9858 12.8724 15.8728 13.1353 15.6518C13.4873 15.7889 13.8874 15.7899 14.2724 15.6398C14.7274 15.4638 15.1014 15.1088 15.3134 14.6788C15.7074 14.7628 16.1584 14.7038 16.5684 14.4978C16.9694 14.2959 17.2594 13.9868 17.4034 13.6258C17.8014 13.6468 18.2114 13.5058 18.5504 13.2148C19.1245 12.7238 19.2825 11.9598 18.9505 11.2708Z" fill="black"/>
<path d="M10.0002 2.98556H5.50013C5.22412 2.98556 5.0001 3.20958 5.0001 3.48559C5.0001 3.76159 5.22412 3.98561 5.50013 3.98561H10.0002C10.2763 3.98561 10.5003 3.76159 10.5003 3.48559C10.5003 3.20958 10.2763 2.98556 10.0002 2.98556Z" fill="black"/>
<path d="M20.4155 10.2067C20.2605 9.97776 19.9505 9.91476 19.7215 10.0708L18.2595 11.0528C18.0305 11.2068 17.9695 11.5178 18.1235 11.7468C18.2205 11.8898 18.3785 11.9678 18.5396 11.9678C18.6346 11.9678 18.7316 11.9408 18.8176 11.8828L20.2796 10.9008C20.5085 10.7468 20.5695 10.4358 20.4155 10.2067Z" fill="black"/>
<path d="M17.3114 12.5928C16.9535 12.3108 15.3524 10.6718 14.3624 9.63978C14.1713 9.43976 13.8544 9.43278 13.6553 9.62478C13.4553 9.8158 13.4493 10.1328 13.6403 10.3318C13.8974 10.5998 16.1644 12.9629 16.6914 13.3789C16.7824 13.4509 16.8924 13.4859 17.0004 13.4859C17.1474 13.4859 17.2944 13.4199 17.3944 13.2949C17.5655 13.0789 17.5285 12.7638 17.3114 12.5928Z" fill="black"/>
<path d="M15.3134 13.5959C14.7144 13.1168 13.2094 11.5178 12.8693 11.1478C12.6813 10.9438 12.3663 10.9318 12.1623 11.1178C11.9593 11.3048 11.9453 11.6218 12.1323 11.8248C12.1503 11.8438 13.9463 13.7829 14.6883 14.3769C14.7804 14.4499 14.8914 14.4859 15.0004 14.4859C15.1464 14.4859 15.2923 14.4209 15.3913 14.2989C15.5634 14.0829 15.5284 13.7678 15.3134 13.5959Z" fill="black"/>
<path d="M13.3234 14.6029C12.6103 14.0019 11.1513 12.4488 10.8663 12.1438C10.6773 11.9418 10.3603 11.9308 10.1593 12.1198C9.95726 12.3088 9.94723 12.6248 10.1353 12.8268C10.5453 13.2658 11.9413 14.7459 12.6783 15.3679C12.7723 15.4469 12.8863 15.4859 13.0003 15.4859C13.1423 15.4859 13.2844 15.4249 13.3834 15.3079C13.5613 15.0959 13.5343 14.7809 13.3234 14.6029Z" fill="black"/>
<path d="M5.84415 2.12257C4.98712 1.31053 1.56004 1.04751 0.53003 0.98652C0.388042 0.979535 0.257022 1.02651 0.157035 1.12152C0.0570015 1.21551 0 1.34751 0 1.48552V10.4858C0 10.7618 0.224022 10.9858 0.500029 10.9858H3.50011C3.71611 10.9858 3.90812 10.8468 3.97511 10.6408C4.04809 10.4168 5.77117 5.12864 5.99814 2.52856C6.01118 2.37654 5.95516 2.22654 5.84415 2.12257ZM3.13508 9.98577H1.00001V2.02155C2.60707 2.14854 4.34111 2.42454 4.97113 2.73055C4.70614 4.92061 3.50709 8.81171 3.13508 9.98577Z" fill="black"/>
<path d="M23.5006 1.98555C19.5745 1.98555 17.3964 2.99057 17.3054 3.03257C17.1755 3.09356 17.0784 3.20658 17.0384 3.3436C16.9985 3.48062 17.0184 3.62762 17.0934 3.74959C17.7114 4.74464 19.6465 10.2708 20.0185 11.6188C20.0785 11.8358 20.2755 11.9858 20.5005 11.9858H23.5006C23.7766 11.9858 24.0006 11.7618 24.0006 11.4858V2.48553C24.0006 2.20854 23.7766 1.98555 23.5006 1.98555ZM23.0006 10.9858H20.8746C20.4005 9.44173 19.0005 5.41562 18.2195 3.75161C18.9825 3.49262 20.6216 3.04757 23.0006 2.9916V10.9858Z" fill="black"/>
</svg>
