<svg width="15" height="16" viewBox="0 0 15 16" fill="none" xmlns="http://www.w3.org/2000/svg">
<path d="M12.8043 2.33001C11.3877 0.913447 9.5043 0.133301 7.50095 0.133301C5.4976 0.133301 3.61425 0.913447 2.19766 2.33001C0.781123 3.74657 0.000976562 5.62998 0.000976562 7.6333C0.000976562 9.63662 0.781123 11.52 2.19769 12.9366C3.61425 14.3532 5.49766 15.1333 7.50098 15.1333C8.74375 15.1333 9.97504 14.8229 11.0617 14.2357C11.2809 14.1173 11.3626 13.8435 11.2441 13.6242C11.1257 13.405 10.852 13.3234 10.6327 13.4418C9.67735 13.9581 8.59442 14.2309 7.50098 14.2309C3.86304 14.2309 0.90335 11.2712 0.90335 7.6333C0.90335 3.99536 3.86304 1.0357 7.50095 1.0357C11.1389 1.0357 14.0985 3.99539 14.0985 7.6333C14.0985 8.49431 13.8894 9.51873 13.7017 9.89968C13.5352 10.2375 13.0636 10.7132 12.5363 10.7132C11.8537 10.7132 11.2983 10.1579 11.2983 9.47528V4.71779C11.2983 4.46862 11.0963 4.26659 10.8471 4.26659C10.5979 4.26659 10.3959 4.46859 10.3959 4.71779V5.17881C9.69883 4.35788 8.65978 3.83593 7.50095 3.83593C5.4071 3.83593 3.70357 5.53942 3.70357 7.6333C3.70357 9.72715 5.40704 11.4307 7.50095 11.4307C8.69743 11.4307 9.76624 10.8743 10.4628 10.0068C10.6998 10.9307 11.5395 11.6156 12.5362 11.6156C13.4067 11.6156 14.1886 10.953 14.5111 10.2986C14.7858 9.74121 15.0009 8.57051 15.0009 7.63333C15.0009 5.62998 14.2208 3.74657 12.8043 2.33001ZM7.50095 10.5283C5.90468 10.5283 4.60598 9.2296 4.60598 7.6333C4.60598 6.037 5.90465 4.73833 7.50095 4.73833C9.09725 4.73833 10.3959 6.037 10.3959 7.6333C10.3959 9.2296 9.09725 10.5283 7.50095 10.5283Z" fill="black"/>
</svg>
