<svg width="40" height="27" viewBox="0 0 40 27" fill="none" xmlns="http://www.w3.org/2000/svg">
<path d="M19.9999 12.307C23.3617 12.307 26.0869 9.58178 26.0869 6.22004C26.0869 2.85829 23.3617 0.133057 19.9999 0.133057C16.6382 0.133057 13.913 2.85829 13.913 6.22004C13.913 9.58178 16.6382 12.307 19.9999 12.307Z" fill="white"/>
<path d="M32.1739 15.7853C34.5751 15.7853 36.5217 13.8387 36.5217 11.4375C36.5217 9.03623 34.5751 7.08965 32.1739 7.08965C29.7727 7.08965 27.8261 9.03623 27.8261 11.4375C27.8261 13.8387 29.7727 15.7853 32.1739 15.7853Z" fill="white"/>
<path d="M7.94958 15.7853C10.3508 15.7853 12.2974 13.8387 12.2974 11.4375C12.2974 9.03623 10.3508 7.08965 7.94958 7.08965C5.54836 7.08965 3.60178 9.03623 3.60178 11.4375C3.60178 13.8387 5.54836 15.7853 7.94958 15.7853Z" fill="white"/>
<path d="M20 14.0461C13.7669 14.0461 8.69559 19.1174 8.69559 25.3505C8.69559 25.8305 9.08518 26.2201 9.56518 26.2201H30.4347C30.9147 26.2201 31.3043 25.8305 31.3043 25.3505C31.3043 19.1174 26.233 14.0461 20 14.0461Z" fill="white"/>
<path d="M9.44869 17.7122C8.91652 17.5992 8.37562 17.5244 7.82608 17.5244C3.5113 17.5244 0 21.0357 0 25.3505C0 25.8305 0.389592 26.2201 0.869592 26.2201H7.11652C7.0191 25.9471 6.95649 25.6566 6.95649 25.3505C6.95649 22.4966 7.88869 19.8618 9.44869 17.7122Z" fill="white"/>
<path d="M32.1739 17.5244C31.6244 17.5244 31.0835 17.5992 30.5513 17.7122C32.1113 19.8618 33.0435 22.4966 33.0435 25.3505C33.0435 25.6566 32.9809 25.947 32.8835 26.2201H39.1304C39.6104 26.2201 40 25.8305 40 25.3505C40 21.0357 36.4887 17.5244 32.1739 17.5244Z" fill="white"/>
</svg>
