<svg width="115" height="55" viewBox="0 0 115 55" fill="none" xmlns="http://www.w3.org/2000/svg">
<path fill-rule="evenodd" clip-rule="evenodd" d="M0 55H115V42.4358H0V55Z" fill="#FF5028"/>
<path fill-rule="evenodd" clip-rule="evenodd" d="M8.45445 15.3469H2.51451V9.75575H8.45445C10.3664 9.75575 11.4908 10.7254 11.4908 12.5224C11.4908 14.0168 10.3664 15.3469 8.45445 15.3469ZM2.51451 2.58863H8.27246C9.64023 2.58863 10.753 3.43092 10.753 5.06146C10.753 6.51396 9.64023 7.47751 8.27246 7.47751H2.51451V2.58863ZM11.5742 8.40964C12.7531 7.52161 13.2683 6.31937 13.2683 5.06146C13.2683 2.11237 11.0271 0.310944 8.27246 0.310944H0.000366211V17.6251H8.45445C11.9121 17.6251 14.0061 15.3364 14.0061 12.5224C14.0061 10.8852 13.1089 9.37154 11.5742 8.40964Z" fill="black"/>
<path fill-rule="evenodd" clip-rule="evenodd" d="M91.8348 29.6674H87.6892V26.0425H91.8348C92.7824 26.0425 93.5532 26.8026 93.5532 27.8549C93.5532 28.9078 92.7824 29.6674 91.8348 29.6674ZM96.0685 27.8549C96.0685 25.483 94.1693 23.8287 91.8348 23.8287H85.1744V36.2347H87.6892V31.8811H90.9799L93.3955 36.2347H96.2551L93.5764 31.5239C95.0792 30.8762 96.0685 29.438 96.0685 27.8549Z" fill="black"/>
<path fill-rule="evenodd" clip-rule="evenodd" d="M40.5659 26.2206H45.0128V36.2348H47.5281V26.2206H51.9757V23.8288H40.5659V26.2206Z" fill="black"/>
<path fill-rule="evenodd" clip-rule="evenodd" d="M55.858 36.2348H58.3728V31.8812H64.2362V29.668H58.3728V26.0425H65.2104V23.8288H55.858V36.2348Z" fill="black"/>
<path fill-rule="evenodd" clip-rule="evenodd" d="M74.6901 34.1571C72.2252 34.1571 70.5178 32.2416 70.5178 30.0323C70.5178 27.8224 72.2252 25.9069 74.6901 25.9069C77.155 25.9069 78.8624 27.8224 78.8624 30.0323C78.8624 32.2416 77.155 34.1571 74.6901 34.1571ZM74.6901 23.5724C70.9456 23.5724 67.8988 26.4702 67.8988 30.0323C67.8988 33.5932 70.9456 36.4911 74.6901 36.4911C78.4347 36.4911 81.4814 33.5932 81.4814 30.0323C81.4814 26.4702 78.4347 23.5724 74.6901 23.5724Z" fill="black"/>
<path fill-rule="evenodd" clip-rule="evenodd" d="M16.551 23.8285H14.0363V36.2346H22.6231L23.3725 33.8433H16.551V23.8285Z" fill="black"/>
<path fill-rule="evenodd" clip-rule="evenodd" d="M107.793 33.4601L102.817 23.8284H100.586V36.235H103.1V29.1015L106.786 36.235H108.799L112.485 29.1015V36.235H115V23.8284H112.768L107.793 33.4601Z" fill="black"/>
<path fill-rule="evenodd" clip-rule="evenodd" d="M5.78672 30.6207H2.51451V26.0422H5.78672C7.01017 26.0422 8.00644 27.0157 8.00644 28.3314C8.00644 29.6467 7.01017 30.6207 5.78672 30.6207ZM5.78672 23.8284H0.000366211V36.235H2.51451V32.8345H5.78672C8.39649 32.8345 10.5206 30.9658 10.5206 28.3314C10.5206 25.6971 8.39649 23.8284 5.78672 23.8284Z" fill="black"/>
<path fill-rule="evenodd" clip-rule="evenodd" d="M30.0086 31.6295L31.7496 26.0422H32.8885L34.6295 31.6295H30.0086ZM29.8377 23.8285L25.95 36.2345H28.5736L29.3189 33.8433H35.3197L36.0645 36.2345H38.6882L34.801 23.8285H29.8377Z" fill="black"/>
<path fill-rule="evenodd" clip-rule="evenodd" d="M79.6323 13.2499L71.0484 0.310841H68.6588V17.625H71.1735V4.68597L79.7574 17.625H82.147V0.310841H79.6323V13.2499Z" fill="black"/>
<path fill-rule="evenodd" clip-rule="evenodd" d="M46.5629 15.2331H38.543V0.310665H36.0276V17.6254H45.8136L46.5629 15.2331Z" fill="black"/>
<path fill-rule="evenodd" clip-rule="evenodd" d="M115 2.58863V0.310944H104.339V17.6251H115V15.3469H106.853V9.75575H113.622V7.47751H106.853V2.58863H115Z" fill="black"/>
<path fill-rule="evenodd" clip-rule="evenodd" d="M23.8048 2.58863H24.9437L27.4943 10.8951H21.2548L23.8048 2.58863ZM20.5552 13.1739H28.1939L29.5605 17.6251H32.2439L26.818 0.310944H21.9305L16.5052 17.6251H19.1886L20.5552 13.1739Z" fill="black"/>
<path fill-rule="evenodd" clip-rule="evenodd" d="M53.694 10.8953L56.2441 2.5888H57.3829L59.9335 10.8953H53.694ZM54.3697 0.310562L48.9445 17.6253H51.6278L52.9944 13.1736H60.6331L61.9991 17.6253H64.6831L59.2572 0.310562H54.3697Z" fill="black"/>
<path fill-rule="evenodd" clip-rule="evenodd" d="M98.0317 12.1679C97.5645 14.848 95.7575 15.6015 93.6786 15.6015C90.9668 15.6015 89.1678 13.9103 89.1678 11.0268V6.90914C89.1678 4.02565 90.9668 2.33447 93.6786 2.33447C95.7575 2.33447 97.5645 3.08855 98.0317 5.76864H100.546C100.161 1.73197 96.7665 0 93.6786 0C89.5799 0 86.6531 2.85979 86.6531 6.90914V11.0268C86.6531 15.0767 89.5799 17.9365 93.6786 17.9365C96.7665 17.9365 100.161 16.2046 100.546 12.1679H98.0317Z" fill="black"/>
</svg>
