<svg width="15" height="16" viewBox="0 0 15 16" fill="none" xmlns="http://www.w3.org/2000/svg">
<path d="M3.03968 10.1421C4.52478 11.9173 6.31251 13.3151 8.35295 14.3041C9.12982 14.6723 10.1688 15.109 11.3263 15.1839C11.398 15.187 11.4667 15.1902 11.5384 15.1902C12.3153 15.1902 12.9393 14.9218 13.4478 14.3696C13.4509 14.3665 13.4572 14.3603 13.4603 14.354C13.6413 14.1356 13.8472 13.9391 14.0625 13.73C14.2091 13.5896 14.3588 13.443 14.5024 13.2932C15.1669 12.6006 15.1669 11.7208 14.4961 11.05L12.621 9.1749C12.3028 8.84419 11.9222 8.66947 11.5228 8.66947C11.1235 8.66947 10.7397 8.84419 10.4121 9.17179L9.29517 10.2887C9.19222 10.2294 9.08614 10.1764 8.9863 10.1265C8.8615 10.0641 8.74606 10.0048 8.64311 9.93929C7.626 9.29346 6.7025 8.45108 5.81955 7.36846C5.3734 6.80375 5.07389 6.32951 4.86485 5.84592C5.15813 5.58073 5.43268 5.30305 5.69788 5.03162C5.79148 4.9349 5.88819 4.83818 5.98491 4.74146C6.32187 4.40451 6.50282 4.01451 6.50282 3.61828C6.50282 3.22205 6.32499 2.83205 5.98491 2.4951L5.05517 1.56536C4.94597 1.45616 4.84301 1.35008 4.73693 1.24088C4.53102 1.02873 4.31574 0.810329 4.10358 0.613773C3.78223 0.298658 3.40472 0.133301 3.00536 0.133301C2.60913 0.133301 2.2285 0.298658 1.89466 0.616892L0.727802 1.78375C0.303489 2.20807 0.0632535 2.72286 0.0133344 3.31877C-0.0459446 4.06443 0.0913331 4.8569 0.447007 5.81472C0.992998 7.2967 1.81666 8.67259 3.03968 10.1421ZM0.774601 3.38428C0.812041 2.96933 0.971158 2.62302 1.27067 2.3235L2.43129 1.16288C2.61225 0.988166 2.81193 0.897688 3.00536 0.897688C3.19568 0.897688 3.38912 0.988166 3.56695 1.16912C3.77599 1.36256 3.97255 1.56536 4.1847 1.78063C4.29078 1.88983 4.39998 1.99903 4.50918 2.11135L5.43892 3.04109C5.63236 3.23453 5.7322 3.43108 5.7322 3.62452C5.7322 3.81796 5.63236 4.01451 5.43892 4.20795C5.3422 4.30467 5.24548 4.40451 5.14877 4.50123C4.85861 4.7945 4.58718 5.07218 4.28766 5.33737C4.28142 5.34361 4.2783 5.34673 4.27206 5.35297C4.01311 5.61193 4.05367 5.8584 4.11606 6.0456C4.11918 6.05496 4.1223 6.0612 4.12542 6.07056C4.36566 6.64775 4.69949 7.19686 5.22053 7.85205C6.15651 9.00643 7.14241 9.90185 8.22815 10.5914C8.36231 10.6787 8.50583 10.7474 8.63999 10.816C8.76478 10.8784 8.88022 10.9377 8.98318 11.0032C8.99566 11.0094 9.00502 11.0157 9.0175 11.0219C9.12046 11.075 9.2203 11.0999 9.32014 11.0999C9.56973 11.0999 9.73197 10.9408 9.78501 10.8878L10.9519 9.7209C11.1328 9.53994 11.3294 9.44322 11.5228 9.44322C11.7599 9.44322 11.9534 9.58986 12.075 9.7209L13.9564 11.5991C14.3308 11.9735 14.3276 12.3791 13.947 12.7753C13.816 12.9157 13.6787 13.0499 13.5321 13.1903C13.3137 13.4024 13.0859 13.6208 12.88 13.8673C12.5212 14.2542 12.0938 14.4351 11.5415 14.4351C11.4885 14.4351 11.4323 14.432 11.3793 14.4289C10.356 14.3634 9.40437 13.964 8.68991 13.6239C6.7493 12.6848 5.04581 11.3526 3.63247 9.66162C2.46873 8.26076 1.68563 6.95662 1.16771 5.55889C0.84636 4.7009 0.724682 4.01139 0.774601 3.38428Z" fill="black"/>
</svg>
