<svg width="40" height="24" viewBox="0 0 40 24" fill="none" xmlns="http://www.w3.org/2000/svg">
<path d="M24.5586 0.220093H15.4413C14.701 0.220093 14.1006 0.820493 14.1006 1.56087V22.4162C14.1006 23.1565 14.701 23.7569 15.4413 23.7569H24.5586C25.299 23.7569 25.8994 23.1565 25.8994 22.4162V1.56087C25.8994 0.820359 25.299 0.220093 24.5586 0.220093Z" fill="white"/>
<path d="M10.1453 6.53784H1.34078C0.600401 6.53784 0 7.13824 0 7.87862V22.4162C0 23.1565 0.600401 23.7569 1.34078 23.7569H10.1453C10.8857 23.7569 11.4861 23.1565 11.4861 22.4162V7.87862C11.4861 7.13811 10.8857 6.53784 10.1453 6.53784Z" fill="white"/>
<path d="M38.6592 10.1704H29.7206C28.9803 10.1704 28.3799 10.7708 28.3799 11.5112V22.4162C28.3799 23.1565 28.9803 23.7569 29.7206 23.7569H38.6592C39.3996 23.7569 40 23.1565 40 22.4162V11.5112C40 10.7708 39.3996 10.1704 38.6592 10.1704Z" fill="white"/>
</svg>
