<svg width="40" height="36" viewBox="0 0 40 36" fill="none" xmlns="http://www.w3.org/2000/svg">
<path d="M39.9625 11.7045L37.7 2.64946C37.4225 1.53696 36.4225 0.756958 35.275 0.756958H4.7275C3.58 0.756958 2.58 1.53696 2.3 2.64946L0.0375 11.7045C0.0125 11.802 0 11.9045 0 12.007C0 15.452 2.6625 18.257 5.9375 18.257C7.84 18.257 9.5375 17.3095 10.625 15.8395C11.7125 17.3095 13.41 18.257 15.3125 18.257C17.215 18.257 18.9125 17.3095 20 15.8395C21.0875 17.3095 22.7825 18.257 24.6875 18.257C26.5925 18.257 28.2875 17.3095 29.375 15.8395C30.4625 17.3095 32.1575 18.257 34.0625 18.257C37.3375 18.257 40 15.452 40 12.007C40 11.9045 39.9875 11.802 39.9625 11.7045Z" fill="white"/>
<path d="M34.0625 20.757C32.36 20.757 30.7425 20.237 29.375 19.287C26.64 21.1895 22.735 21.1895 20 19.287C17.265 21.1895 13.36 21.1895 10.625 19.287C9.2575 20.237 7.64 20.757 5.9375 20.757C4.71 20.757 3.5525 20.4695 2.5 19.9795V33.257C2.5 34.637 3.62 35.757 5 35.757H15V25.757H25V35.757H35C36.38 35.757 37.5 34.637 37.5 33.257V19.9795C36.4475 20.4695 35.29 20.757 34.0625 20.757Z" fill="white"/>
</svg>
