<svg width="50" height="39" viewBox="0 0 50 39" fill="none" xmlns="http://www.w3.org/2000/svg">
<path d="M47.5806 11.2903H46.7742V5.64516C46.7742 2.53226 44.2411 0 41.129 0H5.64516C2.53306 0 0 2.53226 0 5.64516V27.4194C0 33.6452 5.06452 38.7097 11.2903 38.7097C15.1169 38.7097 18.5 36.7919 20.5427 33.871H41.129C44.2411 33.871 46.7742 31.3387 46.7742 28.2258V20.9677H47.5806C48.9145 20.9677 50 19.8823 50 18.5484V13.7097C50 12.3758 48.9145 11.2903 47.5806 11.2903ZM11.2903 37.0968C5.95403 37.0968 1.6129 32.7556 1.6129 27.4194C1.6129 22.0831 5.95403 17.7419 11.2903 17.7419C16.6266 17.7419 20.9677 22.0831 20.9677 27.4194C20.9677 32.7556 16.6266 37.0968 11.2903 37.0968ZM45.1613 28.2258C45.1613 30.4492 43.3524 32.2581 41.129 32.2581H21.4758C22.1766 30.7887 22.5806 29.1524 22.5806 27.4194C22.5806 21.1935 17.5161 16.129 11.2903 16.129C7.18064 16.129 3.5879 18.3427 1.6129 21.6339V5.64516C1.6129 3.42177 3.42177 1.6129 5.64516 1.6129H41.129C43.3524 1.6129 45.1613 3.42177 45.1613 5.64516V11.2903H37.0968C34.4282 11.2903 32.2581 13.4605 32.2581 16.129C32.2581 18.7976 34.4282 20.9677 37.0968 20.9677H45.1613V28.2258ZM48.3871 18.5484C48.3871 18.9927 48.0258 19.3548 47.5806 19.3548H37.0968C35.3177 19.3548 33.871 17.9081 33.871 16.129C33.871 14.35 35.3177 12.9032 37.0968 12.9032H47.5806C48.0258 12.9032 48.3871 13.2653 48.3871 13.7097V18.5484Z" fill="black"/>
<path d="M37.0968 13.7097C35.7629 13.7097 34.6774 14.7952 34.6774 16.129C34.6774 17.4629 35.7629 18.5484 37.0968 18.5484C38.4306 18.5484 39.5161 17.4629 39.5161 16.129C39.5161 14.7952 38.4306 13.7097 37.0968 13.7097ZM37.0968 16.9355C36.6516 16.9355 36.2903 16.5734 36.2903 16.129C36.2903 15.6847 36.6516 15.3226 37.0968 15.3226C37.5419 15.3226 37.9032 15.6847 37.9032 16.129C37.9032 16.5734 37.5419 16.9355 37.0968 16.9355Z" fill="black"/>
<path d="M11.2903 22.5806C12.5927 22.5806 13.7097 23.9105 13.7097 25H15.3226C15.3226 23.3629 13.9645 21.4935 12.0968 21.0613V20.1613H10.4839V21.0468C8.66935 21.4032 7.25806 22.9306 7.25806 24.6976C7.25806 26.6435 9.06694 28.2258 11.2903 28.2258C12.6242 28.2258 13.7097 29.0847 13.7097 30.1411C13.7097 31.1403 12.675 32.2581 11.2903 32.2581C9.9879 32.2581 8.87097 30.9282 8.87097 29.8387H7.25806C7.25806 31.4758 8.61613 33.3452 10.4839 33.7774V34.6774H12.0968V33.7919C13.9113 33.4355 15.3226 31.9081 15.3226 30.1411C15.3226 28.1952 13.5137 26.6129 11.2903 26.6129C9.95645 26.6129 8.87097 25.754 8.87097 24.6976C8.87097 23.6984 9.90565 22.5806 11.2903 22.5806Z" fill="black"/>
</svg>
