<svg width="40" height="30" viewBox="0 0 40 30" fill="none" xmlns="http://www.w3.org/2000/svg">
<path d="M33.4445 18.7752C32.4329 19.7286 31.19 20.4325 29.808 20.8C31.1033 22.8518 31.988 25.198 32.3149 27.7363C32.3775 28.2264 32.2871 28.7019 32.0785 29.133H39.1891C39.4168 29.133 39.6392 29.0288 39.7974 28.8478C39.9492 28.6756 40.0214 28.4555 39.9945 28.2453C39.4697 24.1594 36.901 20.6709 33.4445 18.7752Z" fill="white"/>
<path d="M25.2442 15.9738C25.5287 16.1758 25.8022 16.3917 26.0727 16.6105C26.3448 16.8307 26.6139 17.054 26.8713 17.2903C27.6044 17.96 28.2791 18.6922 28.8881 19.4806C30.0391 19.2706 31.0922 18.7796 31.9733 18.0795C32.195 17.903 32.4072 17.717 32.6057 17.5164C32.7916 17.3282 32.9637 17.127 33.1272 16.9197C34.0652 15.7279 34.6296 14.2306 34.6296 12.6005C34.6296 8.74143 31.4896 5.60145 27.6306 5.60145C26.8196 5.60145 26.0435 5.74697 25.3185 6.00253C25.5717 6.8942 25.716 7.83142 25.716 8.80338C25.716 11.1176 24.9392 13.2492 23.6446 14.9701C24.1961 15.2779 24.7314 15.6084 25.2442 15.9738Z" fill="white"/>
<path d="M14.7679 29.1331H29.6671C30.0224 29.1331 30.3556 28.985 30.5824 28.7283C30.7816 28.503 30.8705 28.2178 30.8319 27.9267C30.5065 25.3863 29.5693 23.0582 28.1952 21.0656C28.026 20.8212 27.8546 20.5791 27.673 20.3449C27.4643 20.0779 27.2426 19.8226 27.0187 19.5688C26.3754 18.8437 25.6694 18.1795 24.9057 17.5856C24.6446 17.3822 24.3755 17.1896 24.1012 17.0037C23.8335 16.822 23.5658 16.6426 23.2872 16.4777C23.0786 16.3537 22.8635 16.24 22.6482 16.1255C22.4375 16.3349 22.2179 16.5347 21.9889 16.7258C21.797 16.8848 21.595 17.0306 21.3916 17.1765C21.1902 17.3208 20.9816 17.4559 20.7693 17.5849C20.668 17.647 20.5689 17.7118 20.4644 17.7701C20.4331 17.7877 20.404 17.8087 20.3726 17.8256C18.9022 18.6366 17.2151 19.1005 15.4205 19.1005C12.6047 19.1005 10.052 17.9619 8.19131 16.1246C3.84617 18.4332 0.672668 22.7472 0.00850056 27.9215C-0.0293963 28.2146 0.0602444 28.5006 0.260904 28.7289C0.486584 28.9848 0.81964 29.1329 1.17298 29.1329L14.7679 29.1331Z" fill="white"/>
<path d="M9.07448 14.887C9.25899 15.0788 9.45224 15.2619 9.65326 15.4369C11.1999 16.7833 13.2136 17.6053 15.4208 17.6053C17.0998 17.6053 18.6649 17.1239 20.0019 16.3049C20.216 16.1729 20.4239 16.0337 20.6251 15.8855C20.8192 15.7425 21.0073 15.5944 21.1875 15.437C21.1999 15.4261 21.2116 15.4143 21.224 15.4041C21.4115 15.2394 21.5931 15.0678 21.7659 14.887C21.949 14.6959 22.1247 14.499 22.2903 14.2919C23.4967 12.7853 24.2232 10.8787 24.2232 8.80228C24.2232 8.06232 24.1217 7.3475 23.9482 6.65977C23.8846 6.4081 23.8125 6.16092 23.7278 5.91799C23.6447 5.67992 23.5535 5.44537 23.4515 5.21605C22.0752 2.14652 18.9969 0 15.4208 0C10.5675 0 6.61871 3.94881 6.61871 8.8024C6.61871 10.8782 7.34483 12.7847 8.55085 14.2913C8.71592 14.499 8.89143 14.6959 9.07448 14.887Z" fill="white"/>
</svg>
