<svg width="15" height="20" viewBox="0 0 15 20" fill="none" xmlns="http://www.w3.org/2000/svg">
<path d="M7.39472 8.06472C9.62173 8.06472 11.4272 6.25929 11.4272 4.03228C11.4272 1.80527 9.62173 0 7.39472 0C5.16771 0 3.36245 1.80543 3.36245 4.03244C3.36495 6.25829 5.16888 8.06222 7.39472 8.06472ZM7.39472 0.854168C9.15011 0.854168 10.573 2.27706 10.573 4.03244C10.573 5.78766 9.15011 7.21055 7.39472 7.21055C5.63951 7.21055 4.21662 5.78766 4.21662 4.03244C4.21862 2.27789 5.64034 0.85617 7.39472 0.854168Z" fill="black"/>
<path d="M7.5 9.48509C3.35712 9.48342 -0.00166768 12.8424 6.2121e-07 16.9851V18.7063C6.2121e-07 18.9422 0.191188 19.1334 0.427085 19.1334H14.5729C14.8088 19.1334 15 18.9422 15 18.7063V16.9851C15.0018 12.8424 11.6429 9.48342 7.5 9.48509ZM14.1458 18.2792H0.854169V16.9851C0.848163 14.6068 2.11357 12.4066 4.17225 11.2156C6.23093 10.0248 8.76907 10.0248 10.8279 11.2156C12.8866 12.4066 14.152 14.6068 14.1458 16.9851V18.2792Z" fill="black"/>
</svg>
