<svg width="20" height="21" viewBox="0 0 20 21" fill="none" xmlns="http://www.w3.org/2000/svg">
<path d="M19.4141 2.42932H16.8475C16.8568 2.14505 16.862 1.8591 16.862 1.57178C16.862 1.24814 16.5996 0.98584 16.2761 0.98584H3.72391C3.40042 0.98584 3.13797 1.24814 3.13797 1.57178C3.13797 1.8591 3.14316 2.14505 3.15247 2.42932H0.585938C0.262299 2.42932 0 2.69162 0 3.01526C0 5.64069 0.686188 8.11765 1.93207 9.99005C3.1636 11.8411 4.80408 12.9028 6.57623 13.0061C6.978 13.4433 7.40265 13.7997 7.845 14.0716V16.6758H6.86203C5.67368 16.6758 4.70703 17.6426 4.70703 18.8308V19.8138H4.66537C4.34174 19.8138 4.07944 20.0763 4.07944 20.3997C4.07944 20.7234 4.34174 20.9857 4.66537 20.9857H15.3346C15.6583 20.9857 15.9206 20.7234 15.9206 20.3997C15.9206 20.0763 15.6583 19.8138 15.3346 19.8138H15.293V18.8308C15.293 17.6426 14.3263 16.6758 13.138 16.6758H12.155V14.0716C12.5974 13.7999 13.0222 13.4433 13.4239 13.0061C15.1959 12.9028 16.8364 11.8411 18.0681 9.99005C19.314 8.11765 20 5.64069 20 3.01526C20 2.69162 19.7377 2.42932 19.4141 2.42932ZM2.90771 9.34094C1.88004 7.7966 1.27625 5.77664 1.18423 3.6012H3.21793C3.42926 6.27545 4.05701 8.74738 5.03815 10.7095C5.1944 11.022 5.35782 11.3173 5.52734 11.5953C4.55276 11.2272 3.65082 10.4579 2.90771 9.34094ZM14.1211 18.8308V19.814H5.87891V18.8308C5.87891 18.2888 6.31989 17.8477 6.86203 17.8477H13.138C13.6801 17.8477 14.1211 18.2888 14.1211 18.8308ZM10.9831 16.6758H9.01688V14.5808C9.33899 14.6656 9.66721 14.7097 10 14.7097C10.3328 14.7097 10.661 14.6656 10.9831 14.5808V16.6758ZM11.346 13.1868C11.3196 13.1976 11.2943 13.2107 11.27 13.2252C10.8559 13.4312 10.4303 13.5379 10 13.5379C9.56985 13.5379 9.14444 13.4312 8.73047 13.2255C8.7059 13.2107 8.68042 13.1976 8.65372 13.1865C8.19427 12.9435 7.74979 12.5767 7.32941 12.0947C7.30728 12.0631 7.28241 12.034 7.25479 12.0074C6.83746 11.512 6.44485 10.9025 6.08627 10.1854C5.00946 8.03189 4.38751 5.20032 4.31671 2.15771H15.6833C15.6123 5.20032 14.9904 8.03204 13.9137 10.1854C13.5551 10.9025 13.1625 11.512 12.7454 12.0074C12.7176 12.034 12.6924 12.0633 12.6704 12.0948C12.2501 12.577 11.8054 12.9437 11.346 13.1868ZM17.0923 9.34094C16.3492 10.4579 15.4472 11.2272 14.4727 11.5953C14.6422 11.3173 14.8056 11.022 14.9619 10.7095C15.943 8.74738 16.5706 6.27545 16.7821 3.6012H18.8158C18.7238 5.77664 18.12 7.7966 17.0923 9.34094Z" fill="black"/>
</svg>
